<svg width="206" height="128" viewBox="0 0 206 128" fill="none" xmlns="http://www.w3.org/2000/svg">
<rect width="205.645" height="127.336" rx="6.80942" fill="url(#paint0_linear_46_17)"/>
<path d="M49.2212 47.9591C52.6168 47.9591 55.5957 48.6227 58.1579 49.9501C60.7509 51.2775 62.742 53.176 64.1311 55.6455C65.5511 58.0842 66.2611 60.9242 66.2611 64.1655C66.2611 67.4068 65.5511 70.2467 64.1311 72.6854C62.742 75.0932 60.7509 76.9608 58.1579 78.2882C55.5957 79.6156 52.6168 80.2793 49.2212 80.2793H37.923V47.9591H49.2212ZM48.9897 74.7691C52.3853 74.7691 55.0092 73.843 56.8614 71.9909C58.7135 70.1387 59.6396 67.5302 59.6396 64.1655C59.6396 60.8007 58.7135 58.1768 56.8614 56.2938C55.0092 54.3799 52.3853 53.4229 48.9897 53.4229H44.4056V74.7691H48.9897ZM73.3825 67.3605C73.3825 64.7674 73.8919 62.4677 74.9106 60.4612C75.9601 58.4546 77.3647 56.9112 79.1242 55.8307C80.9146 54.7503 82.9057 54.2101 85.0974 54.2101C87.0114 54.2101 88.6783 54.596 90.0983 55.3677C91.5491 56.1394 92.7068 57.1118 93.5711 58.2849V54.6268H100.1V80.2793H93.5711V76.5287C92.7376 77.7326 91.58 78.7358 90.0983 79.5384C88.6474 80.3102 86.965 80.696 85.0511 80.696C82.8903 80.696 80.9146 80.1404 79.1242 79.0291C77.3647 77.9178 75.9601 76.3589 74.9106 74.3524C73.8919 72.315 73.3825 69.9844 73.3825 67.3605ZM93.5711 67.4531C93.5711 65.8787 93.2624 64.5359 92.645 63.4246C92.0276 62.2824 91.1942 61.4181 90.1446 60.8316C89.095 60.2142 87.9683 59.9055 86.7644 59.9055C85.5605 59.9055 84.4492 60.1988 83.4305 60.7853C82.4118 61.3718 81.5783 62.2361 80.9301 63.3783C80.3127 64.4896 80.004 65.817 80.004 67.3605C80.004 68.9039 80.3127 70.2622 80.9301 71.4352C81.5783 72.5774 82.4118 73.4572 83.4305 74.0746C84.4801 74.6919 85.5914 75.0006 86.7644 75.0006C87.9683 75.0006 89.095 74.7074 90.1446 74.1209C91.1942 73.5035 92.0276 72.6391 92.645 71.5278C93.2624 70.3857 93.5711 69.0274 93.5711 67.4531ZM134.908 54.6268L119.026 92.411H112.127L117.683 79.631L107.404 54.6268H114.673L121.295 72.5465L128.009 54.6268H134.908ZM155.78 52.4969V46.5236H166.939V80.2793H160.271V52.4969H155.78Z" fill="white"/>
<defs>
<linearGradient id="paint0_linear_46_17" x1="-1.41309e-06" y1="110.148" x2="204.453" y2="89.1211" gradientUnits="userSpaceOnUse">
<stop stop-color="#129106"/>
<stop offset="1" stop-color="#5EBF4E"/>
</linearGradient>
</defs>
</svg>
